<svg width="200" height="34" viewBox="0 0 200 34" fill="none" xmlns="http://www.w3.org/2000/svg">
<path d="M178.951 32.954C177.945 32.954 176.939 32.914 175.933 32.914C174.927 32.874 173.921 32.874 172.915 32.874H171.748C171.037 32.8549 170.332 32.733 169.656 32.512C168.89 32.2675 168.223 31.7839 167.752 31.1321C167.281 30.4804 167.032 29.6949 167.041 28.891C167.037 27.3129 167.254 25.7421 167.685 24.224C167.806 23.781 167.885 23.299 168.007 22.856C169.174 17.344 170.301 11.956 171.507 6.6C172.151 3.783 173.559 2.053 175.812 1.289C177.04 0.925202 178.313 0.735685 179.594 0.725996C180.761 0.685996 181.928 0.645996 183.135 0.645996C184.262 0.645996 185.428 0.645996 186.635 0.685996C188.896 0.636934 191.147 1.00509 193.274 1.772C199.309 4.226 200.074 9.9 199.994 13.038C199.751 18.4699 197.6 23.642 193.919 27.644C191.388 30.2398 188.085 31.9477 184.504 32.513C182.673 32.8464 180.812 32.9941 178.951 32.954ZM176.778 31.385H179.836C180.56 31.385 181.164 31.385 181.727 31.345C184.699 31.2665 187.594 30.376 190.096 28.77C193.796 26.396 196.212 22.895 197.54 18.07C198.394 15.3935 198.599 12.5525 198.14 9.781C197.255 5.234 194.076 2.659 188.966 2.381C187.196 2.26 185.466 2.26 183.977 2.26H179.833C178.89 2.22637 177.945 2.29341 177.016 2.46C174.803 2.86 173.475 4.432 172.872 7.127C171.504 13.327 170.418 18.554 169.372 23.503C169.05 25.072 168.809 26.762 168.572 28.814C168.504 29.344 168.64 29.88 168.954 30.3129C169.267 30.7458 169.733 31.043 170.258 31.144C170.78 31.3025 171.322 31.3837 171.867 31.385H174C174.525 31.425 176.778 31.385 176.778 31.385Z" fill="black"/>
<path d="M4.76597 33.5211C3.8526 33.5423 2.95004 33.32 2.15097 32.8771C1.60992 32.5726 1.14446 32.15 0.789201 31.6409C0.433941 31.1317 0.198019 30.549 0.0989747 29.9361C-0.0656565 28.7911 0.0307471 27.6236 0.380975 26.5211C0.460975 26.2391 0.501975 25.9211 0.580975 25.6361C1.46597 21.3311 2.39197 16.9451 3.31697 12.7601C3.75997 10.6271 4.20197 8.53509 4.68497 6.40309C4.83185 5.25874 5.24758 4.16543 5.89815 3.2126C6.54872 2.25978 7.41564 1.47453 8.42797 0.921094C9.35878 0.430219 10.3937 0.169605 11.446 0.161094C12.678 0.120148 13.8817 0.535747 14.826 1.32809C16.073 2.45509 16.476 3.98409 16.073 6.11609C15.993 6.47809 15.952 6.88009 15.873 7.28309L15.673 8.24909L15.19 10.1801L19.455 6.48009L21.266 4.91109C22.594 3.74409 24.002 2.49709 25.41 1.37009C26.2924 0.599039 27.4147 0.157656 28.586 0.121094C29.3002 0.142054 30.0009 0.320649 30.638 0.644094C31.2065 0.93782 31.7033 1.35331 32.0929 1.86096C32.4825 2.36861 32.7553 2.95594 32.892 3.58109C33.0058 4.19956 32.978 4.83577 32.8107 5.44196C32.6434 6.04814 32.3409 6.60855 31.926 7.08109C31.0201 8.09322 30.0515 9.04744 29.026 9.93809C28.626 10.3001 28.181 10.6621 27.779 11.0651C27.055 11.7491 25.405 13.1571 24.641 13.8411C24.7915 14.2857 24.9799 14.7166 25.204 15.1291C25.687 16.2151 26.129 17.3021 26.612 18.4291C27.497 20.5621 28.423 22.7751 29.429 24.9071C30.998 28.3271 29.029 31.0231 26.693 32.4311C25.6593 33.0947 24.4611 33.4569 23.233 33.4771C22.8676 33.4766 22.5035 33.436 22.147 33.3561C21.4381 33.2456 20.7697 32.9543 20.2062 32.5103C19.6427 32.0663 19.2031 31.4845 18.93 30.8211L17.964 28.5681C17.164 26.7171 16.314 24.8261 15.55 22.9751C15.429 22.6931 14.906 21.3661 14.906 21.3661C14.544 21.5661 13.457 22.5731 13.176 22.7341C12.09 23.4581 12.21 24.2631 12.009 25.1481C11.7185 26.7784 11.2462 28.371 10.601 29.8961C10.0647 30.9856 9.23366 31.9028 8.20221 32.5436C7.17076 33.1844 5.98027 33.523 4.76597 33.5211ZM16.596 21.8891C17.763 24.5891 19.01 27.4011 20.177 30.1781C20.3928 30.7432 20.7811 31.2261 21.2867 31.5584C21.7922 31.8906 22.3896 32.0553 22.994 32.0291H23.155C23.6764 32.0171 24.1926 31.9219 24.684 31.7471C25.4068 31.55 26.0789 31.2003 26.6551 30.7214C27.2313 30.2425 27.6981 29.6457 28.024 28.9711C28.285 28.273 28.3914 27.5265 28.3358 26.7832C28.2802 26.04 28.064 25.3176 27.702 24.6661C26.575 22.2921 25.529 19.8381 24.523 17.4231C24 16.1761 23.477 14.8881 22.914 13.6411C22.914 13.5611 22.914 13.5201 22.914 13.4801L22.994 13.4001C24.644 11.9511 26.294 10.5001 27.822 9.13509L28.265 8.73509C29.029 8.05109 29.834 7.32709 30.558 6.56209C31.0495 6.06286 31.3507 5.40737 31.4095 4.70927C31.4684 4.01118 31.281 3.31452 30.88 2.74009C30.6156 2.39813 30.273 2.12464 29.8809 1.94262C29.4888 1.7606 29.0588 1.67537 28.627 1.69409C28.1401 1.70027 27.6601 1.81004 27.219 2.01609C26.8723 2.15772 26.5471 2.34723 26.253 2.57909C23.115 5.27909 20.539 7.48809 18.165 9.57909C16.596 10.9471 15.065 12.2791 13.538 13.6431L12.814 14.2871C12.935 13.7641 13.014 13.2411 13.136 12.7581C13.659 10.3041 14.222 7.76909 14.625 5.27409C14.7418 4.84494 14.7626 4.39533 14.6861 3.95721C14.6095 3.51909 14.4374 3.1032 14.182 2.73909C13.8666 2.40835 13.4851 2.14781 13.0622 1.97447C12.6394 1.80113 12.1847 1.71888 11.728 1.73309H11.446C10.1624 1.73585 8.9229 2.20126 7.95474 3.04397C6.98658 3.88668 6.35469 5.05019 6.17497 6.32109C5.57498 9.13809 4.96798 11.9141 4.40497 14.6901C3.88197 17.0241 3.39897 19.3171 2.91597 21.6511C2.43297 23.8211 1.98997 26.1141 1.54597 28.4071C1.43703 28.7864 1.41171 29.1849 1.47178 29.5749C1.53184 29.965 1.67585 30.3374 1.89387 30.6663C2.11189 30.9953 2.39871 31.273 2.73454 31.4804C3.07036 31.6877 3.44718 31.8196 3.83897 31.8671C4.16837 31.9469 4.50604 31.9875 4.84497 31.9881C5.91725 31.9893 6.96152 31.6458 7.82364 31.0082C8.68577 30.3706 9.32008 29.4727 9.63297 28.4471C10.0439 27.1123 10.3797 25.7555 10.639 24.3831L10.8 23.6591C10.8674 23.162 11.1099 22.7053 11.484 22.3711C12.53 21.4861 13.576 20.5601 14.663 19.5951L15.347 18.9951C15.346 19.0321 16.596 21.8891 16.596 21.8891Z" fill="black"/>
<path d="M138.231 33.517C137.324 33.5284 136.427 33.3227 135.616 32.917C134.897 32.5263 134.317 31.9219 133.957 31.1874C133.597 30.4529 133.473 29.6246 133.604 28.817C134.087 26.041 134.69 23.264 135.254 20.568L135.576 19.039C136.421 15.015 137.306 10.871 138.232 6.80697C138.518 4.98221 139.498 3.33865 140.968 2.21997C142.029 1.42346 143.304 0.961133 144.629 0.891973C145.429 0.851973 146.319 0.851973 147.405 0.851973H151.505C152.269 0.851973 153.034 0.851973 153.758 0.811973C154.522 0.811973 155.247 0.771973 156.011 0.771973C157.057 0.771973 157.942 0.811973 158.747 0.851973C162.489 1.17397 164.863 2.46097 166.147 5.03697C167.475 7.61197 167.233 10.308 165.463 13.446C164.7 14.8031 163.658 15.9825 162.405 16.906C162.005 17.147 161.278 17.506 161.278 17.506C161.703 17.7529 162.107 18.0356 162.485 18.351C162.989 18.9273 163.357 19.6106 163.559 20.3493C163.761 21.0881 163.793 21.8631 163.652 22.616C163.612 23.38 163.531 24.105 163.452 24.869C163.371 25.754 163.291 26.639 163.211 27.569C162.929 31.915 159.59 33.444 156.811 33.444H156.771C154.276 33.444 152.747 32.559 152.104 30.829C151.859 29.9114 151.778 28.9578 151.863 28.012V27.328C151.863 26.604 151.943 25.879 151.984 25.115L152.105 23.908C152.138 23.6863 152.123 23.4601 152.06 23.2449C151.998 23.0296 151.89 22.8305 151.743 22.661C151.45 22.3457 151.046 22.1579 150.616 22.138C149.409 22.058 148.403 22.017 147.478 22.017H146.03C146.03 22.017 145.869 22.817 145.748 23.184C145.549 23.9127 145.387 24.6514 145.265 25.397C144.983 26.644 144.702 27.972 144.299 29.179C143.88 30.4529 143.065 31.5602 141.974 32.3402C140.883 33.1202 139.572 33.5324 138.231 33.517ZM148.089 20.517C148.773 20.517 149.336 20.517 149.859 20.557C150.422 20.5278 150.985 20.6165 151.511 20.8174C152.038 21.0184 152.517 21.3272 152.917 21.724C153.234 22.137 153.462 22.6112 153.587 23.1167C153.711 23.6221 153.73 24.148 153.641 24.661C153.48 26.23 153.4 27.88 153.319 29.288C153.263 29.789 153.386 30.2936 153.666 30.713C153.945 31.1325 154.364 31.4398 154.848 31.581C155.505 31.8245 156.2 31.9472 156.9 31.943C157.533 31.9833 158.167 31.8917 158.762 31.6741C159.358 31.4565 159.902 31.1176 160.36 30.6789C160.817 30.2402 161.179 29.7112 161.421 29.1254C161.664 28.5396 161.782 27.9099 161.769 27.276C161.814 25.8087 161.935 24.3448 162.131 22.89C162.493 20.436 161.849 19.108 159.757 17.941C159.516 17.78 158.912 17.498 158.671 17.378L160.039 16.694C161.587 16.2395 162.908 15.2197 163.739 13.837C164.464 12.5833 164.993 11.2263 165.308 9.81297C166.032 5.78897 164.383 3.33497 160.319 2.52997C158.579 2.2294 156.813 2.1081 155.048 2.16797H153.284C151.594 2.16797 149.864 2.20797 148.214 2.20797C147.248 2.20797 146.283 2.24797 145.314 2.24797C144.021 2.17095 142.745 2.57701 141.733 3.3874C140.722 4.1978 140.048 5.35477 139.842 6.63397C138.836 11.06 137.911 15.567 136.985 19.912L136.385 22.769C136.304 23.212 136.185 23.614 136.103 24.057C135.781 25.546 135.419 27.115 135.218 28.684C135.119 29.0753 135.108 29.4835 135.184 29.8797C135.261 30.276 135.424 30.6505 135.661 30.977C135.892 31.2475 136.174 31.4688 136.492 31.6277C136.81 31.7866 137.157 31.8799 137.512 31.902C137.806 31.9345 138.101 31.9478 138.397 31.942C140.932 31.942 142.702 30.453 143.346 27.798C143.829 25.746 144.272 23.698 144.674 21.682L144.874 20.636C144.874 20.556 144.914 20.515 144.914 20.475H146.884C147.284 20.5121 147.687 20.5271 148.089 20.52V20.517Z" fill="black"/>
<path d="M98.84 32.913H88.982C86.689 32.873 85.082 31.746 84.636 29.895C84.4018 28.8905 84.3881 27.8472 84.596 26.837C85.884 20.56 87.252 14.082 88.821 6.96C89.384 4.385 90.471 2.735 92.201 1.85C93.1529 1.31554 94.2118 0.999577 95.301 0.925002C97.836 0.804002 100.572 0.725002 103.348 0.725002H105.963C108.202 0.66167 110.436 0.988547 112.563 1.691C115.379 2.818 116.788 4.749 116.748 7.525C116.795 8.8485 116.549 10.166 116.027 11.3832C115.505 12.6004 114.721 13.6873 113.73 14.566C113.408 14.807 112.201 15.693 112.201 15.693C112.688 16.0174 113.158 16.3666 113.609 16.739C114.323 17.5511 114.824 18.5271 115.069 19.5801C115.314 20.6331 115.295 21.7303 115.013 22.774C113.967 28.085 110.225 31.586 104.513 32.592C103.382 32.7784 102.239 32.886 101.093 32.914L98.84 32.913ZM89.827 31.424H96.144C97.995 31.424 99.524 31.424 100.932 31.384C102.368 31.3612 103.798 31.1859 105.197 30.861C109.261 29.895 111.916 27.642 113.083 24.141C114.371 20.241 113.445 17.541 110.146 15.651C110.629 15.369 111.031 15.088 111.514 14.851C112.338 14.424 113.057 13.8202 113.62 13.0829C114.184 12.3457 114.577 11.493 114.773 10.586C114.808 10.3814 114.862 10.1806 114.934 9.986C115.02 9.68211 115.087 9.37318 115.134 9.061C115.313 8.34074 115.335 7.59021 115.197 6.86092C115.058 6.13163 114.764 5.44085 114.334 4.836C113.688 4.10422 112.896 3.51517 112.009 3.10643C111.122 2.69768 110.16 2.47821 109.184 2.462C107.575 2.301 105.804 2.262 103.712 2.262C102.143 2.262 100.574 2.302 99.004 2.342C97.757 2.382 96.429 2.422 95.182 2.422C94.5375 2.3972 93.8972 2.53541 93.3204 2.82383C92.7435 3.11225 92.2488 3.54156 91.882 4.072C91.2347 5.00329 90.7442 6.03425 90.43 7.124C89.907 9.216 89.464 11.349 89.022 13.441C88.901 13.964 88.822 14.487 88.7 15.01L88.257 17.183C87.533 20.683 86.768 24.305 86.084 27.846C85.9714 28.2756 85.9528 28.7243 86.0292 29.1618C86.1056 29.5992 86.2754 30.0151 86.527 30.381C86.8392 30.7322 87.2241 31.0112 87.6549 31.1987C88.0857 31.3862 88.5522 31.4778 89.022 31.467H89.545L89.827 31.424Z" fill="black"/>
<path d="M46.1689 33.6781C44.0133 33.6963 41.8769 33.2719 39.8919 32.4311C37.7957 31.6775 35.9831 30.2954 34.7013 28.4735C33.4196 26.6517 32.7311 24.4787 32.7299 22.2511C32.5151 19.1614 32.9925 16.0627 34.1271 13.1809C35.2618 10.2992 37.0253 7.70688 39.289 5.59309C42.4846 2.586 46.5599 0.682226 50.917 0.161092C51.7032 0.0487639 52.4967 -0.00505059 53.291 9.23684e-05C55.7976 0.00850148 58.2661 0.615327 60.4909 1.77009C62.1363 2.59654 63.5541 3.81356 64.6203 5.3147C65.6864 6.81583 66.3686 8.55535 66.607 10.3811C66.687 10.9041 66.7279 11.4671 66.7679 12.0311C66.7679 12.2721 66.8079 12.5541 66.8079 12.7951C66.486 18.9951 64.474 23.9001 60.652 27.8031C57.611 30.8283 53.6749 32.7912 49.429 33.4001C48.3533 33.5942 47.2619 33.6872 46.1689 33.6781ZM53.1689 1.52909C50.7857 1.52963 48.424 1.98019 46.208 2.85709C41.8241 4.51843 38.261 7.82397 36.276 12.0711C34.6229 15.3972 33.9132 19.1128 34.2239 22.8141C34.3031 24.1029 34.6478 25.3615 35.2363 26.5108C35.8249 27.6601 36.6445 28.6755 37.6439 29.4931C39.6123 31.0212 41.9965 31.9188 44.484 32.0681C45.1658 32.1349 45.851 32.1616 46.536 32.1481C48.8822 32.1886 51.2133 31.7651 53.3954 30.9019C55.5774 30.0387 57.5674 28.7528 59.2509 27.1181C61.5154 25.0165 63.2304 22.3921 64.2458 19.4743C65.2613 16.5566 65.5463 13.4345 65.0759 10.3811C64.9141 9.02256 64.4552 7.71629 63.732 6.55494C63.0087 5.39359 62.0388 4.40561 60.8909 3.66109C58.5951 2.1758 55.8986 1.43125 53.166 1.52809L53.1689 1.52909Z" fill="black"/>
<path d="M122.097 33.517C121.285 33.539 120.481 33.346 119.767 32.9573C119.053 32.5687 118.455 31.9983 118.033 31.304C117.718 30.7246 117.521 30.0887 117.452 29.4328C117.383 28.777 117.445 28.114 117.633 27.482C118.196 24.907 118.719 22.332 119.283 19.757C120.128 15.894 120.933 12.032 121.778 8.16898L121.899 7.64598C122.136 6.02778 122.682 4.47036 123.508 3.05898C124.122 2.19636 124.929 1.48888 125.865 0.992748C126.8 0.496616 127.838 0.225512 128.897 0.200978C129.289 0.199294 129.68 0.239861 130.064 0.321978C132.639 0.884978 133.806 2.73598 133.524 5.91498L133.162 7.72598C132.84 9.33498 132.438 11.226 132.035 13.118L131.19 17.101C130.426 20.642 129.661 24.301 128.856 27.844C128.65 29.1629 128.053 30.3897 127.142 31.3653C126.231 32.3409 125.048 33.0205 123.746 33.316C123.206 33.4446 122.652 33.512 122.097 33.517ZM128.978 1.68998C128.599 1.68823 128.221 1.72881 127.851 1.81098C125.638 2.25398 124.27 3.74198 123.707 6.23698C122.419 12.237 121.172 18.107 119.764 24.665C119.724 24.906 119.643 25.148 119.603 25.429C119.338 26.5566 119.137 27.6984 119.003 28.849C118.933 29.1966 118.935 29.555 119.011 29.9015C119.086 30.2481 119.232 30.5753 119.44 30.8626C119.648 31.1499 119.913 31.391 120.219 31.5707C120.524 31.7505 120.864 31.865 121.216 31.907C121.572 31.9869 121.937 32.0274 122.302 32.028C123.507 32.0303 124.675 31.6143 125.607 30.851C126.539 30.0877 127.177 29.0245 127.412 27.843C128.458 23.095 129.464 18.267 130.47 13.559L131.194 10.179C131.476 8.93198 131.717 7.72498 131.918 6.71898L132.159 5.59198V5.51198C132.159 3.33898 131.797 2.09198 129.866 1.81198C129.576 1.73428 129.277 1.69329 128.977 1.68998H128.978Z" fill="black"/>
<path d="M72.525 33.5171C71.7275 33.5029 70.9382 33.3531 70.191 33.0741C69.2862 32.655 68.5507 31.941 68.1048 31.0491C67.659 30.1572 67.5293 29.1404 67.737 28.1651C68.743 23.2961 70.111 16.8181 71.519 10.3401C71.599 10.0181 71.64 9.69613 71.719 9.37413C72.041 7.59412 72.512 5.8443 73.127 4.14313C73.6164 2.97414 74.4375 1.97408 75.4888 1.26644C76.5402 0.55879 77.7757 0.174541 79.043 0.161133C79.4483 0.161533 79.8526 0.202064 80.25 0.282133C82.825 0.845133 83.871 2.37413 83.871 5.51313L83.671 6.47913C83.471 7.48513 83.188 8.77213 82.947 10.1001L82.826 10.7001C81.619 16.2931 80.412 22.0471 79.164 27.7201C78.8593 29.4741 77.8928 31.0442 76.464 32.1061C75.3396 32.9928 73.9566 33.4882 72.525 33.5171ZM79.285 1.69013C76.468 1.69013 74.577 3.29913 73.934 6.19713C73.411 8.57113 72.888 10.9851 72.405 13.3191L71.805 16.0951L71.121 19.2331C70.521 22.0901 69.874 25.0671 69.27 28.0051C69.1376 28.5122 69.1194 29.0424 69.2168 29.5574C69.3141 30.0724 69.5246 30.5594 69.833 30.9831C70.1303 31.3284 70.5019 31.6019 70.92 31.783C71.3381 31.9642 71.7917 32.0483 72.247 32.0291C72.5566 32.0207 72.8655 31.994 73.172 31.9491C75.747 31.4661 77.196 29.9371 77.759 27.2411C78.483 23.7411 79.248 20.2801 79.972 16.7791C80.455 14.4861 80.938 12.1921 81.461 9.89913C81.702 8.73213 81.944 7.56513 82.145 6.59913L82.345 5.51313V5.43313C82.345 2.77713 81.46 1.69113 79.287 1.69113L79.285 1.69013Z" fill="black"/>
<path d="M177.06 25.1481C177.744 22.0481 178.388 18.9111 179.072 15.7731L179.756 12.5141L179.956 11.5481C180.156 10.5421 180.356 9.53607 180.64 8.53007C180.64 8.49007 180.72 8.40906 180.761 8.36906H182.21C183.34 8.33654 184.471 8.40347 185.59 8.56907C188.809 9.05207 190.298 11.0641 190.016 14.4841C189.867 16.692 189.293 18.8505 188.326 20.8411C187.692 22.1183 186.718 23.196 185.511 23.9555C184.305 24.715 182.912 25.127 181.486 25.1461C181.286 25.1461 181.043 25.1861 180.762 25.1861H178.062C177.726 25.1954 177.39 25.1821 177.056 25.1461L177.06 25.1481ZM181.848 9.85806C181.848 9.85806 181.808 10.0581 181.607 11.1051C181.527 11.5881 181.407 12.0711 181.285 12.5541C181.205 12.8361 181.164 13.1171 181.085 13.3991C180.441 16.3361 179.838 19.2741 179.194 22.2111C179.113 22.4931 178.872 23.7801 178.872 23.7801C178.872 23.7801 180.602 23.8201 180.924 23.8201C181.945 23.8029 182.951 23.5679 183.874 23.1308C184.797 22.6936 185.616 22.0643 186.276 21.2851C187.571 19.1947 188.331 16.8178 188.489 14.3641V14.2841C188.489 11.5841 187.689 10.4621 185.471 10.0591C184.948 9.97907 184.385 9.93807 183.862 9.89807C183.58 9.89807 183.339 9.85806 183.062 9.85806C183.015 9.89806 181.848 9.85806 181.848 9.85806Z" fill="black"/>
<path d="M151.066 15.6081H145.836C146.319 13.3551 146.882 10.9811 147.365 8.56708C147.445 8.20508 147.445 8.20508 147.765 8.20508H147.805C148.891 8.24508 149.978 8.24508 150.863 8.24508H153.763C153.992 8.23948 154.22 8.25286 154.447 8.28508C156.741 8.72808 157.103 9.81408 157.183 10.6991C157.288 11.5301 157.14 12.3733 156.76 13.1195C156.38 13.8657 155.784 14.4805 155.05 14.8841C154.095 15.2535 153.092 15.4838 152.072 15.5681C151.738 15.6041 151.402 15.6174 151.066 15.6081ZM148.732 9.60808C148.732 9.60808 148.571 10.1311 148.332 11.2981C148.292 11.4591 148.251 11.6201 148.211 11.8211C148.165 11.9368 148.138 12.0589 148.131 12.1831C147.97 12.9471 147.809 14.0741 147.809 14.0741C147.809 14.0741 149.016 14.1541 149.459 14.1541H152.036C152.401 14.1535 152.765 14.113 153.122 14.0331H153.162C153.842 13.9903 154.478 13.6845 154.936 13.1804C155.394 12.6764 155.638 12.0138 155.616 11.3331C155.641 11.1173 155.618 10.8986 155.55 10.6926C155.481 10.4865 155.368 10.2981 155.218 10.1407C155.068 9.98324 154.886 9.86065 154.683 9.78157C154.481 9.7025 154.264 9.66887 154.047 9.68308C153.647 9.68308 153.247 9.68308 152.84 9.64308C152.04 9.64308 151.19 9.60308 150.386 9.56308C150.302 9.61608 148.736 9.61608 148.736 9.61608L148.732 9.60808Z" fill="black"/>
<path d="M97.793 25.9932H94.293L94.493 25.0682C94.775 23.7802 95.016 22.4932 95.293 21.2462C95.373 20.9242 95.414 20.6022 95.493 20.3212C95.614 19.8382 95.734 19.3152 95.815 18.7922C95.815 18.7522 95.815 18.7122 95.855 18.7122H99.637C100.603 18.7122 101.367 18.7122 102.051 18.7522C104.023 18.7922 105.471 19.9192 105.551 21.4522C105.62 22.2859 105.424 23.1201 104.991 23.8356C104.557 24.551 103.908 25.1109 103.137 25.4352C102.278 25.7874 101.365 25.9904 100.437 26.0352C99.685 25.9932 98.84 25.9932 97.793 25.9932ZM100.288 20.1182H97.149C97.149 20.1182 97.109 20.3592 96.988 20.8822C96.827 21.5662 96.666 22.2502 96.505 23.0552C96.465 23.3372 96.183 24.6242 96.183 24.6242H96.947C97.43 24.5842 97.913 24.5842 98.355 24.5842C99.3914 24.5804 100.427 24.5136 101.455 24.3842C102.312 24.1864 103.069 23.6866 103.588 22.9762C103.803 22.7246 103.943 22.418 103.993 22.0909C104.043 21.7638 104 21.4293 103.87 21.1252C103.695 20.8148 103.436 20.5598 103.123 20.3891C102.81 20.2183 102.456 20.1387 102.1 20.1592C101.536 20.1182 100.932 20.1182 100.293 20.1182H100.288Z" fill="black"/>
<path d="M102.421 14.7272H102.18C101.858 14.7272 101.536 14.6872 101.255 14.6872H96.707V14.6452C96.907 13.7602 97.107 12.8342 97.307 11.9452C97.589 10.5372 97.907 9.16916 98.232 7.76016C98.232 7.72016 98.272 7.68016 98.313 7.63916H100.164C101.411 7.63916 102.864 7.63916 104.264 7.76016C104.704 7.74513 105.14 7.84038 105.534 8.03723C105.927 8.23407 106.265 8.52626 106.517 8.88716C106.765 9.38619 106.898 9.93477 106.905 10.4921C106.912 11.0494 106.793 11.6011 106.557 12.1062C106.191 12.893 105.606 13.5582 104.873 14.0228C104.14 14.4874 103.289 14.7319 102.421 14.7272ZM100.248 13.2782H101.536C101.898 13.2865 102.261 13.2731 102.622 13.2382C103.207 13.2155 103.771 13.0145 104.239 12.662C104.706 12.3095 105.054 11.8224 105.237 11.2662C105.321 11.0369 105.353 10.792 105.332 10.5488C105.312 10.3055 105.238 10.0698 105.116 9.85816C104.979 9.67324 104.804 9.51999 104.603 9.40885C104.401 9.29772 104.178 9.23131 103.949 9.21416C103.709 9.17844 103.467 9.16505 103.225 9.17416H99.525C99.525 9.17416 99.325 9.81816 99.082 10.9442C99.042 11.1852 98.961 11.5072 98.882 11.8692C98.802 12.3122 98.56 13.2772 98.56 13.2772C98.56 13.2772 99.566 13.3172 99.968 13.3172L100.248 13.2782Z" fill="black"/>
<path d="M48.021 25.9931C47.1312 26.0018 46.2509 25.8094 45.446 25.4301C43.756 24.6301 42.871 23.1771 42.629 20.7631V19.7971C42.911 15.2101 44.118 12.1121 46.492 9.73812C47.7963 8.47191 49.5431 7.76443 51.361 7.76612C52.2897 7.76975 53.2082 7.96126 54.061 8.32912C54.7804 8.64435 55.4023 9.14639 55.8621 9.78313C56.3219 10.4199 56.6029 11.1681 56.676 11.9501C57.0104 14.0365 56.8809 16.171 56.2967 18.2017C55.7125 20.2324 54.688 22.1094 53.296 23.6991C52.6237 24.4262 51.8076 25.0055 50.8995 25.4004C49.9914 25.7953 49.0112 25.9972 48.021 25.9931ZM51.602 9.17412C50.6403 9.17141 49.6921 9.40037 48.8376 9.84162C47.9832 10.2829 47.2475 10.9234 46.693 11.7091C44.7822 14.4134 43.8847 17.7042 44.158 21.0041C44.1489 21.7936 44.4182 22.561 44.9185 23.1717C45.4188 23.7825 46.1182 24.1975 46.894 24.3441C47.2794 24.4094 47.6703 24.4362 48.061 24.4241C48.9341 24.4404 49.7985 24.248 50.5823 23.8632C51.3662 23.4783 52.0469 22.9119 52.568 22.2111C54.4206 19.8018 55.4124 16.8412 55.385 13.8021V12.7151C55.3951 12.2301 55.3057 11.7481 55.1223 11.299C54.939 10.8499 54.6655 10.4431 54.3187 10.1037C53.972 9.76443 53.5594 9.49977 53.1064 9.32612C52.6534 9.15247 52.1697 9.07351 51.685 9.09412L51.602 9.17412Z" fill="black"/>
</svg>
